<?xml version="1.0" encoding="UTF-8"?>
<svg xmlns="http://www.w3.org/2000/svg" style="display:none">
  <!-- GitHub -->
  <symbol id="icon-github" viewBox="0 0 24 24">
    <path fill="currentColor" d="M12 0.5C5.65 0.5.5 5.65.5 12c0 5.08 3.29 9.38 7.86 10.9.57.1.78-.25.78-.55 0-.27-.01-1.02-.02-2-3.2.7-3.88-1.45-3.88-1.45-.52-1.32-1.27-1.67-1.27-1.67-1.04-.71.08-.7.08-.7 1.15.08 1.76 1.18 1.76 1.18 1.02 1.75 2.67 1.25 3.32.96.1-.75.4-1.25.72-1.54-2.56-.29-5.26-1.28-5.26-5.7 0-1.26.45-2.28 1.18-3.09-.12-.29-.51-1.45.11-3.02 0 0 .96-.31 3.14 1.18.91-.25 1.88-.38 2.85-.38.97 0 1.94.13 2.85.38 2.18-1.49 3.14-1.18 3.14-1.18.62 1.57.23 2.73.11 3.02.73.81 1.18 1.83 1.18 3.09 0 4.43-2.71 5.4-5.29 5.69.41.36.77 1.07.77 2.16 0 1.56-.01 2.82-.01 3.2 0 .3.2.66.79.55C20.71 21.38 24 17.08 24 12c0-6.35-5.15-11.5-12-11.5z"/>
  </symbol>

  <!-- LinkedIn -->
  <symbol id="icon-linkedin" viewBox="0 0 24 24">
    <path fill="currentColor" d="M4.98 3.5C4.98 4.88 3.86 6 2.5 6S0 4.88 0 3.5 1.12 1 2.5 1 4.98 2.12 4.98 3.5zM.5 8h4V24h-4V8zM8.5 8h3.84v2.2h.05c.54-1 1.86-2.06 3.83-2.06 4.1 0 4.86 2.7 4.86 6.2V24h-4V14.5c0-2.26-.04-5.17-3.15-5.17-3.16 0-3.64 2.47-3.64 5.02V24h-4V8z"/>
  </symbol>

  <!-- Twitter -->
  <symbol id="icon-twitter" viewBox="0 0 24 24">
    <path fill="currentColor" d="M24 4.56c-.89.39-1.85.66-2.86.78a4.98 4.98 0 0 0 2.18-2.75 9.93 9.93 0 0 1-3.15 1.2 4.94 4.94 0 0 0-8.4 4.5A14 14 0 0 1 1.67 3.15a4.93 4.93 0 0 0 1.53 6.58 4.9 4.9 0 0 1-2.23-.62c-.05 2.28 1.58 4.41 3.95 4.88a4.94 4.94 0 0 1-2.22.09 4.95 4.95 0 0 0 4.6 3.42A9.9 9.9 0 0 1 0 19.54a14 14 0 0 0 7.56 2.21c9.05 0 14-7.5 14-14v-.64A10.04 10.04 0 0 0 24 4.56z"/>
  </symbol>
</svg>
